<svg xmlns="http://www.w3.org/2000/svg" aria-hidden="true" style="position:absolute;width:0;height:0;overflow:hidden">
  <defs>
    <symbol id="icon-fav" viewBox="0 0 38 32">
      <path fill="white" stroke-linecap="round" stroke-linejoin="round" stroke-width="2.909" d="M32.839 4.355a8.672 8.672 0 0 0-6.13-2.54 8.664 8.664 0 0 0-6.13 2.54l-1.67 1.67-1.67-1.67a8.669 8.669 0 0 0-12.26 12.26l13.93 13.93 13.93-13.93a8.672 8.672 0 0 0 2.54-6.13 8.664 8.664 0 0 0-2.54-6.13z"/>
    </symbol>
    <symbol id="icon-eye-off" viewBox="0 0 32 32">
<path fill="white" stroke="black" stroke-linejoin="round" stroke-linecap="round" stroke-miterlimit="4" stroke-width="3.2" d="M23.92 23.92c-2.279 1.737-5.055 2.7-7.92 2.747-9.333 0-14.667-10.667-14.667-10.667 1.659-3.091 3.959-5.791 6.747-7.92M13.2 5.653c0.918-0.215 1.857-0.322 2.8-0.32 9.333 0 14.667 10.667 14.667 10.667-0.809 1.514-1.775 2.94-2.88 4.253M18.827 18.827c-0.366 0.393-0.808 0.708-1.299 0.927s-1.020 0.336-1.557 0.346c-0.537 0.009-1.071-0.089-1.569-0.291s-0.95-0.5-1.33-0.88-0.679-0.832-0.88-1.33c-0.201-0.498-0.3-1.032-0.29-1.569s0.127-1.067 0.346-1.557 0.534-0.932 0.927-1.298"></path>
<path fill="white" stroke="black" stroke-linejoin="round" stroke-linecap="round" stroke-miterlimit="4" stroke-width="3.2" d="M1.333 1.333l29.333 29.333"></path>
</symbol>
    <symbol id="icon-eye" viewBox="0 0 40 32">
      <path fill="white" stroke="black" stroke-linecap="round" stroke-linejoin="round" stroke-width="4" d="M29.9 25.9a16.777 16.777 0 0 1-9.9 3.433C8.333 29.333 1.667 16 1.667 16A30.751 30.751 0 0 1 10.1 6.1m6.4-3.033a15.162 15.162 0 0 1 3.5-.4C31.667 2.667 38.333 16 38.333 16a30.823 30.823 0 0 1-3.6 5.317m-11.199-1.784a4.987 4.987 0 0 1-5.531 1.228 5.002 5.002 0 0 1-2.695-6.671 4.981 4.981 0 0 1 1.159-1.623"/>
    </symbol>
    <symbol id="icon-login" viewBox="0 0 32 32">
      <path fill="none" stroke="#f4c550" stroke-linecap="round" stroke-linejoin="round" stroke-width="3.2" d="M20 4h1.6c2.24 0 3.36 0 4.216.436a3.996 3.996 0 0 1 1.748 1.748C28 7.04 28 8.16 28 10.4v11.2c0 2.24 0 3.36-.436 4.216a4.001 4.001 0 0 1-1.748 1.748C24.96 28 23.84 28 21.6 28H20M13.333 9.333 20 16m0 0-6.667 6.667M20 16H4" style="stroke:var(--color1, #f4c550)"/>
    </symbol>
    <symbol id="icon-book" viewBox="0 0 32 32">
      <path fill="white" stroke="black" stroke-linecap="round" stroke-linejoin="round" stroke-width="3" d="M29.333 8.267c0-1.493 0-2.24-.291-2.811a2.666 2.666 0 0 0-1.165-1.165C27.306 4 26.56 4 25.066 4h-.533c-2.987 0-4.48 0-5.621.581a5.331 5.331 0 0 0-2.331 2.331C16 8.053 16 9.546 16 12.533V28l.133-.2c.926-1.389 1.389-2.084 2.001-2.587a5.345 5.345 0 0 1 1.837-.983c.758-.23 1.593-.23 3.262-.23h1.833c1.494 0 2.24 0 2.811-.291.502-.256.91-.664 1.165-1.165.291-.57.291-1.317.291-2.811V8.266zm-26.666 0c0-1.493 0-2.24.291-2.811.256-.502.664-.91 1.165-1.165C4.693 4 5.44 4 6.934 4h.533c2.987 0 4.48 0 5.621.581a5.331 5.331 0 0 1 2.331 2.331C16 8.053 16 9.546 16 12.533V28l-.133-.2c-.926-1.389-1.389-2.084-2.001-2.587a5.345 5.345 0 0 0-1.837-.983C11.271 24 10.436 24 8.767 24H6.934c-1.493 0-2.24 0-2.811-.291a2.666 2.666 0 0 1-1.165-1.165c-.291-.57-.291-1.317-.291-2.811V8.266z"/>
    </symbol>
    <symbol id="icon-fav-selected" viewBox="0 0 35 32">
      <path fill="#f4c550" stroke="#f4c550" stroke-linecap="round" stroke-linejoin="round" stroke-width="1.454" d="M31.384 4.355a8.672 8.672 0 0 0-6.13-2.54 8.664 8.664 0 0 0-6.13 2.54l-1.67 1.67-1.67-1.67a8.669 8.669 0 0 0-12.26 12.26l13.93 13.93 13.93-13.93a8.672 8.672 0 0 0 2.54-6.13 8.664 8.664 0 0 0-2.54-6.13z" style="fill:var(--color1, #f4c550);stroke:var(--color1, #f4c550)"/>
    </symbol>
    <symbol id="icon-star" viewBox="0 0 32 32">
      <path fill="#ffc531" style="fill: var(--color1, #ffc531); stroke: var(--color1, #ffc531)" stroke="#ffc531" stroke-linejoin="miter" stroke-linecap="butt" stroke-miterlimit="4" stroke-width="2.4" d="M12.4 9.394l3.6-6.822 3.6 6.822c0.318 0.603 0.899 1.025 1.571 1.141l7.601 1.315-5.376 5.532c-0.475 0.489-0.697 1.171-0.6 1.846l1.098 7.635-6.922-3.404c-0.612-0.301-1.329-0.301-1.941 0l-6.922 3.404 1.098-7.635c0.097-0.675-0.125-1.357-0.6-1.846l-5.376-5.532 7.601-1.315c0.672-0.116 1.252-0.538 1.571-1.141zM29.035 11.579v0zM7.767 27.031c0 0 0 0 0 0h-0z"></path>
    </symbol>
    <symbol id="icon-ukraine" viewBox="0 0 32 32">
      <path fill="#ffda44" style="fill: var(--color1, #ffda44); stroke: var(--color2, #000)" stroke="#000" stroke-linejoin="miter" stroke-linecap="butt" stroke-miterlimit="4" stroke-width="1.1429" d="M31.429 16c0 8.521-6.908 15.429-15.429 15.429s-15.429-6.908-15.429-15.429c0-8.521 6.908-15.429 15.429-15.429s15.429 6.908 15.429 15.429z"></path>
      <path fill="#338af3" style="fill: var(--color3, #338af3)" d="M0 16c0-8.836 7.163-16 16-16s16 7.163 16 16z"></path>
    </symbol>
  </defs>
</svg>